<svg viewBox="0 0 28 28" fill="none" xmlns="http://www.w3.org/2000/svg">
	<circle cx="14" cy="14" r="14" fill="#0D1117" />
	<path d="M12.007 18.614
	         c-3.014-.365-5.136-2.534-5.136-5.343 0-1.141.411-2.375 1.096-3.197-.296-.754-.251-2.353.091-3.014.914-.114 2.147.365 2.878 1.028.867-.274 1.781-.411 2.9-.411
	         s2.033.137 2.855.388
	         c.708-.64 1.963-1.119 2.878-1.005.319.617.365 2.216.068 2.992.731.868 1.119 2.033 1.119 3.22 0 2.809-2.124 4.932-5.183 5.32.776.503 1.302 1.599 1.302 2.855
	         v2.375
	         c0 .685.571 1.074 1.256.799 4.133-1.576 7.376-5.708 7.376-10.821 0-6.462-5.251-11.735-11.713-11.735
	         S2.122 7.338 2.122 13.8 a11.517 11.517 0 0 0 7.558 10.844
	         c.617.228 1.211-.183 1.211-.799 v-1.827 a2.941 2.941 0 0 1-1.096.228
	         c-1.507 0-2.398-.822-3.037-2.352-.252-.616-.526-.981-1.051-1.05-.274-.023-.365-.137-.365-.274 0-.274.456-.48.913-.48.663 0 1.234.411 1.827 1.256.457.662.936.959 1.507.959
	         s.936-.205 1.461-.73 c.388-.389.685-.731.959-.961 Z"
	      fill="#F0F6FC" />
	<circle cx="21" cy="7" r="4.75"
	        fill="#EF4444" stroke="#0D1117" stroke-width="1.5" />
	<path d="M21 4.5v3.2"
	      stroke="white" stroke-width="1.35" stroke-linecap="round" />
	<circle cx="21" cy="9.55" r="0.7" fill="white" />
</svg>
